<svg width="28.708252" height="20.999451" viewBox="0 0 28.7083 20.9995" fill="none" xmlns="http://www.w3.org/2000/svg" xmlns:xlink="http://www.w3.org/1999/xlink">
	<desc>
			Created with Pixso.
	</desc>
	<defs/>
	<path id="Vector" d="M10.9609 20.8951L10.9526 20.8916L10.927 20.8776C10.7769 20.795 10.6279 20.7102 10.4802 20.6233C8.70435 19.568 7.04468 18.3283 5.52881 16.9249C2.84424 14.4201 0 10.7031 0 6.12509C0 2.70908 2.87476 9.15527e-05 6.34424 9.15527e-05C7.30884 -0.00463867 8.26196 0.20816 9.13306 0.62262C10.0039 1.03711 10.7703 1.64261 11.375 2.39407C11.9797 1.64246 12.7463 1.03687 13.6174 0.622375C14.4888 0.207886 15.4421 -0.00482178 16.4067 9.15527e-05C19.8752 9.15527e-05 22.75 2.70908 22.75 6.12509C22.75 10.7043 19.9058 14.4213 17.2212 16.9237C15.7053 18.3272 14.0457 19.5669 12.2698 20.6221C12.1221 20.7094 11.9731 20.7946 11.823 20.8776L11.7974 20.8916L11.7891 20.8962L11.7856 20.8974C11.6592 20.9644 11.5181 20.9995 11.375 20.9995C11.2319 20.9995 11.0908 20.9644 10.9644 20.8974L10.9609 20.8951Z" fill="#FFFFFF" fill-opacity="1.000000" fill-rule="nonzero"/>
	<path id="offline_bolt" d="M21.6416 18.5001L24.5417 12.8334L22.5417 12.8334L22.5417 9.16675L19.5417 14.8334L21.6416 14.8334L21.6416 18.5001ZM22.0417 20.5001C21.1194 20.5001 20.2527 20.3251 19.4417 19.9751C18.6306 19.6251 17.925 19.1501 17.325 18.5501C16.7251 17.9501 16.25 17.2445 15.8999 16.4334C15.55 15.6223 15.375 14.7556 15.375 13.8334C15.375 12.9112 15.55 12.0445 15.8999 11.2334C16.25 10.4223 16.7251 9.71674 17.325 9.11676C17.925 8.51675 18.6306 8.04175 19.4417 7.69174C20.2527 7.34174 21.1194 7.16675 22.0417 7.16675C22.9639 7.16675 23.8306 7.34174 24.6416 7.69174C25.4529 8.04175 26.1584 8.51675 26.7583 9.11676C27.3584 9.71674 27.8333 10.4223 28.1833 11.2334C28.5334 12.0445 28.7083 12.9112 28.7083 13.8334C28.7083 14.7556 28.5334 15.6223 28.1833 16.4334C27.8333 17.2445 27.3584 17.9501 26.7583 18.5501C26.1584 19.1501 25.4529 19.6251 24.6416 19.9751C23.8306 20.3251 22.9639 20.5001 22.0417 20.5001Z" fill="#FFFFFF" fill-opacity="1.000000" fill-rule="nonzero"/>
</svg>
